<svg xmlns="http://www.w3.org/2000/svg" width="64" height="64" fill="none" xmlns:v="https://vecta.io/nano">
	<path d="M32 0c17.674 0 32 14.328 32 32S49.674 64 32 64 0 49.674 0 32 14.326 0 32 0z" fill="#c8232c"/>
	<path d="M32.968 14.012c-11.276 0-16.958 7.828-16.958 14.354 0 3.952 1.544 7.468 4.86 8.778.542.214 1.032.008 1.188-.574l.484-1.846c.16-.574.098-.778-.34-1.28-.958-1.09-1.566-2.504-1.566-4.506 0-5.806 4.486-11.004 11.682-11.004 6.374 0 9.874 3.77 9.874 8.804 0 6.624-3.028 12.216-7.524 12.216-2.48 0-4.34-1.986-3.744-4.428.712-2.908 2.096-6.05 2.096-8.152 0-1.878-1.042-3.45-3.202-3.45-2.538 0-4.576 2.542-4.576 5.948 0 2.17.758 3.636.758 3.636L22.946 45.03c-.906 3.714-.134 8.27-.07 8.73.04.272.4.336.564.132.234-.296 3.256-3.91 4.284-7.522.292-1.022 1.67-6.316 1.67-6.316.824 1.526 3.234 2.866 5.796 2.866 7.626 0 12.802-6.734 12.802-15.746-.002-6.814-5.962-13.162-15.024-13.162z" fill="#fff"/>
</svg>