<svg width="65" height="65" viewBox="0 0 65 65" fill="none" xmlns="http://www.w3.org/2000/svg">
<g id="Group 37">
<g id="Ellipse 7" filter="url(#filter0_b_121_1711)">
<circle cx="32.5" cy="32.5" r="32.5" fill="url(#paint0_linear_121_1711)" fill-opacity="0.3"/>
<circle cx="32.5" cy="32.5" r="32" stroke="url(#paint1_linear_121_1711)"/>
</g>
<path id="Vector" d="M16.0021 45.3649V20.3452C15.998 20.3142 15.9999 20.2826 16.0077 20.2523C16.0155 20.222 16.029 20.1935 16.0475 20.1686C16.066 20.1437 16.089 20.1227 16.1154 20.107C16.1417 20.0912 16.1708 20.0809 16.201 20.0767C16.2216 20.0725 16.2427 20.0725 16.2632 20.0767C18.1533 20.0256 20.5532 20 23.463 20C26.895 20 29.4137 20.7928 31.0192 22.3784C31.7956 23.1297 32.4097 24.0404 32.8217 25.0515C33.2337 26.0626 33.4344 27.1515 33.4108 28.2475C33.4108 31.1345 32.416 33.2884 30.4265 34.7092C28.4369 36.1299 25.9499 36.8275 22.9656 36.802H20.7356V45.3265C20.7403 45.3621 20.7381 45.3982 20.7291 45.4329C20.7202 45.4676 20.7047 45.5001 20.6835 45.5286C20.6623 45.5571 20.6359 45.5811 20.6057 45.599C20.5755 45.617 20.5422 45.6287 20.5076 45.6334H16.2922C16.0974 45.6292 16.0021 45.5397 16.0021 45.3649ZM20.7356 23.6911V33.1193C21.5421 33.1875 22.3514 33.2131 23.1604 33.1961C24.5866 33.2578 25.9961 32.8615 27.1934 32.0623C28.249 31.3121 28.7699 30.0846 28.756 28.3797C28.756 26.8708 28.3029 25.7072 27.3965 24.8888C26.4902 24.0705 25.179 23.6499 23.463 23.6272H21.2081L20.7356 23.6911ZM47.5575 31.3633C46.2563 30.4992 44.7417 30.0362 43.1928 30.0292C42.5233 29.9728 41.8541 30.1418 41.2862 30.5108C41.1002 30.6455 40.9477 30.8233 40.8412 31.03C40.7346 31.2366 40.6769 31.4661 40.6727 31.7C40.6769 31.9273 40.7266 32.1514 40.8186 32.3581C40.9105 32.5649 41.0429 32.75 41.2074 32.902C41.8716 33.4258 42.6152 33.8333 43.4084 34.1082C45.4726 34.9266 46.9205 35.7904 47.7523 36.6997C48.6017 37.6537 49.0489 38.9151 48.9958 40.2075C49.0205 41.0144 48.8591 41.8158 48.5248 42.5463C48.1905 43.2767 47.6929 43.9154 47.0725 44.4102C45.7931 45.4729 44.0591 46.0028 41.8706 46C39.6821 45.9971 37.886 45.588 36.4822 44.7724C36.4081 44.7441 36.3455 44.6907 36.3049 44.621C36.2642 44.5513 36.2478 44.4694 36.2584 44.3888V40.8213C36.2541 40.7813 36.2603 40.7408 36.2763 40.7041C36.2924 40.6674 36.3176 40.6358 36.3496 40.6124C36.3734 40.592 36.4035 40.5808 36.4345 40.5808C36.4656 40.5808 36.4957 40.592 36.5195 40.6124C38.0054 41.7893 39.8252 42.433 41.7007 42.4452C42.3965 42.492 43.0902 42.3259 43.6944 41.9679C43.9057 41.8399 44.0808 41.6573 44.2022 41.4382C44.3237 41.2191 44.3872 40.9712 44.3866 40.719C44.3906 40.4648 44.3429 40.2125 44.2465 39.9784C44.1502 39.7442 44.0073 39.5334 43.827 39.3593C43.1697 38.8237 42.4242 38.4137 41.6261 38.1488C39.6365 37.3561 38.2548 36.5036 37.4811 35.5915C36.6899 34.6422 36.2729 33.4227 36.3123 32.1731C36.3018 31.4165 36.4534 30.6669 36.7564 29.9774C37.0594 29.2879 37.5064 28.6754 38.0656 28.1836C39.2344 27.1351 40.8924 26.6108 43.0395 26.6108C45.0539 26.6108 46.6083 26.895 47.7025 27.4633C47.8269 27.54 47.889 27.7062 47.889 27.962V31.1459C47.8932 31.44 47.7813 31.5082 47.5575 31.3633Z" fill="#00D4FF"/>
</g>
<defs>
<filter id="filter0_b_121_1711" x="-7" y="-7" width="79" height="79" filterUnits="userSpaceOnUse" color-interpolation-filters="sRGB">
<feFlood flood-opacity="0" result="BackgroundImageFix"/>
<feGaussianBlur in="BackgroundImageFix" stdDeviation="3.5"/>
<feComposite in2="SourceAlpha" operator="in" result="effect1_backgroundBlur_121_1711"/>
<feBlend mode="normal" in="SourceGraphic" in2="effect1_backgroundBlur_121_1711" result="shape"/>
</filter>
<linearGradient id="paint0_linear_121_1711" x1="32.5" y1="0" x2="32.5" y2="68.2918" gradientUnits="userSpaceOnUse">
<stop stop-color="#00998F"/>
<stop offset="1" stop-color="white" stop-opacity="0.09"/>
</linearGradient>
<linearGradient id="paint1_linear_121_1711" x1="32.5" y1="0" x2="32.5" y2="68.2918" gradientUnits="userSpaceOnUse">
<stop stop-color="white" stop-opacity="0.25"/>
<stop offset="1" stop-color="white" stop-opacity="0.04"/>
</linearGradient>
</defs>
</svg>
